mtllib materials.mtl
v 0.02184734 0.03647399 0.02815336
v 0.01677758 -0.01712692 -0.03867659
v 0.03040704 -0.02584171 0.008102566
v -0.008064032 0.1258134 0.02272707
v -0.02737221 -0.0375936 -0.0296261
v -0.01972577 0.01037204 0.0345065
v -0.01374274 -0.0463084 0.01715305
v 0.03789344 -0.06526089 -0.0004711747
v 0.03824309 -0.08307767 -0.04729214
v 0.01322883 -0.101101 -0.003609866
v -0.008818448 0.02461135 -0.01384974
v 0.01496521 -0.1905713 -0.04875961
vn 0.9489827 0.2069144 -0.2379459
vn -0.33151 0.3231547 -0.8863815
vn -0.9534565 -0.1756752 0.2450692
vn 0.3021251 -0.2520548 0.9193415
vn 0.0939437 0.09166538 0.9913486
vn 0.3585883 -0.8933238 -0.2709006
vn 0.9450057 0.2300381 -0.2324794
vn -0.2245038 0.05403456 -0.9729739
vn -0.8601369 -0.4841844 0.1604056
vn 0.2672757 -0.1560617 0.9508988
vn 0.7941988 -0.5659339 0.2212854
vn 0.3289364 -0.3231575 0.8873388
vn -0.9424592 0.3117393 -0.120786
vn -0.9771931 0.07858506 -0.1972768
vn 0.9102277 0.2865944 -0.2989133
vn -0.2199088 0.06091303 -0.9736168
vn -0.7929442 -0.286695 0.5376295
vn 0.883628 -0.197148 0.4246578
vn 0.9400527 0.3210069 -0.1151329
vn 0.2324832 -0.2424768 0.9418899
vt 0.1005364 0.1459357
vt 0.09241173 0.1431718
vt 0.09664325 0.1406039
vt -0.1699231 0.09373321
vt -0.1541691 0.08666456
vt -0.1543123 0.09161223
vt -0.0916355 0.1516423
vt -0.08843833 0.146615
vt -0.08406226 0.148928
vt 0.1606729 0.0896434
vt 0.1614363 0.09453391
vt 0.1549694 0.09320559
vt 0.1548787 0.0882567
vt 0.1439218 0.1009695
vt 0.1536864 0.1073466
vt 0.144361 0.1058998
vt 0.02188701 0.09401208
vt 0.01697797 0.09464554
vt 0.01634449 0.08973651
vt 0.02125354 0.08910304
vt 0.1031831 0.1339969
vt 0.09909504 0.1367875
vt 0.1009447 0.1305583
vt -0.1499623 0.09754594
vt -0.1500118 0.09259644
vt -0.143011 0.09682151
vt -0.1171987 -0.08571268
vt -0.1144084 -0.08980095
vt -0.1092285 -0.08595693
vt 0.1531246 0.09039169
vt 0.1531472 0.09534139
vt 0.1491204 0.09455436
vt 0.1102472 0.1237395
vt 0.1052936 0.1244875
vt 0.108105 0.1199397
vt 0.1699333 0.09370495
vt 0.1596872 0.09041559
vt 0.1541803 0.08663405
vt -0.114135 0.1345127
vt -0.1187318 0.1393598
vt -0.1221224 0.1354733
vt -0.1462202 0.109771
vt -0.1436377 0.1142354
vt -0.1532474 0.1190787
vt 0.06880118 0.1588308
vt 0.06880939 0.1682677
vt 0.06150789 0.1543077
vt -0.1501702 0.09268625
vt -0.134356 0.09033727
vt -0.1431718 0.0969153
vt 0.104385 0.1261972
vt 0.09878643 0.1178833
vt 0.1123578 0.1263346
vt 0.1394043 0.1046833
vt 0.1315909 0.0969412
vt 0.141238 0.09966091
vt 0.1509983 0.05394106
vt 0.1447332 0.05084378
vt 0.1487467 0.04784561
vt 0.1504915 0.09322678
vt 0.1480278 0.08962716
vt 0.1544496 0.08902028
o group909134206
g mesh909134206
usemtl mat5
f 3/3/1 2/2/1 1/1/1
f 2/6/2 5/5/2 4/4/2
f 5/9/3 7/8/3 6/7/3
f 7/13/4 3/12/4 1/11/4 6/10/4
f 1/16/5 4/15/5 6/14/5
f 7/20/6 5/19/6 2/18/6 3/17/6
f 8/23/7 2/22/7 3/21/7
f 9/26/8 5/25/8 2/24/8
f 10/29/9 7/28/9 5/27/9
f 8/32/10 3/31/10 7/30/10
f 10/35/11 9/34/11 8/33/11
f 5/38/12 11/37/12 4/36/12
f 6/41/13 11/40/13 5/39/13
f 4/44/14 11/43/14 6/42/14
f 2/47/15 4/46/15 1/45/15
f 9/50/16 12/49/16 5/48/16
f 5/53/17 12/52/17 10/51/17
f 10/56/18 12/55/18 9/54/18
f 8/59/19 9/58/19 2/57/19
f 7/62/20 10/61/20 8/60/20
