mtllib materials.mtl
v -0.05753934 -0.007458091 -0.05599062
v -0.06474113 -0.02170849 -0.04744065
v -0.05972749 -0.03849959 -0.05201957
v -0.02529496 -0.01266491 -0.0913972
v -0.04532382 -0.009998679 -0.0691196
v -0.01594517 0.05610359 -0.04077078
v 0.0647411 0.008360147 -0.05624782
v 0.00789085 -0.0278455 -0.07662936
v -0.04229999 -0.04608786 -0.09097351
v -0.002193511 -0.0686636 -0.04778138
v 0.01218799 -0.07087183 -0.01572283
v -0.02635407 -0.0629797 0.01024266
v -0.03712568 -0.01337838 -0.009602353
v -0.02139959 0.014907 -0.02587521
v 0.0004573762 0.07087183 0.03658281
v 0.06014591 0.01660466 0.02247219
v 0.01827717 -0.04344964 0.03516416
v -0.04516596 -0.02992642 0.02489287
v -0.04326338 -0.008442998 0.006365091
v -0.05605525 0.05070662 0.01532285
v -0.01660246 0.0243026 0.01097068
v 0.01271987 0.01266563 0.06502849
v -0.002195358 -0.01173294 0.0913972
v -0.02825144 0.02327931 0.01616172
v -0.02501351 0.02266777 0.008039579
v -0.01814914 0.01997495 0.01069298
v -0.01760092 0.00540626 0.03952882
v -0.01793072 0.006093383 0.01799279
v -0.03076422 0.01066542 0.01021919
v -0.02663201 0.01839578 0.007943809
v -0.01307857 0.01572275 0.01335168
v -0.01745474 0.02184379 0.008312747
v -0.01719421 0.008000135 0.01568267
v -0.02568617 0.006398797 0.01297466
v -0.03006241 0.01251996 0.007935822
v -0.02594671 0.02024245 0.005604744
vn -0.7350248 -0.03481247 -0.677146
vn -0.6005126 0.5254009 -0.6027758
vn 0.1813196 0.5669234 -0.8035678
vn 0.3774322 -0.07296523 -0.9231582
vn 0.4129114 -0.5914822 -0.6925698
vn -0.4677289 -0.8710815 0.1498221
vn -0.3200364 -0.927511 -0.1931325
vn -0.8756117 -0.3517246 0.3310498
vn -0.8123084 0.05586752 0.5805464
vn -0.7083866 0.5902309 0.3870605
vn -0.6955918 0.6074396 0.3836263
vn -0.2301533 0.8929237 -0.3869326
vn -0.9011034 0.2479285 0.3557305
vn 0.4545633 0.8521999 -0.2590896
vn 0.667136 0.7439161 -0.03896856
vn 0.8524347 -0.5125 0.1034356
vn 0.8238003 -0.5343184 0.1893592
vn 0.128794 -0.8793382 0.4584501
vn -0.2417727 -0.5048797 0.828639
vn -0.8698068 -0.3341344 -0.3630295
vn -0.9355672 -0.179455 -0.3041544
vn -0.8757635 0.2489657 -0.4135872
vn -0.79647 -0.08150885 -0.5991592
vn -0.8041211 -0.1050917 -0.5851027
vn -0.2937514 0.9484717 -0.1187925
vn -0.1756785 -0.4242201 0.8883549
vn 0.0727578 0.9824036 0.1720158
vn 0.6497855 -0.3059622 0.6958205
vn -0.2383373 -0.4745566 0.8473437
vn 0.6806837 -0.6880199 -0.2515919
vn -0.809451 0.4229554 0.4073057
vn -0.8613193 0.275838 0.4266644
vn -0.2183889 -0.192124 0.9567627
vn 0.6818204 0.6978863 0.2192622
vn -0.1798902 -0.4290845 0.88517
vn -0.2304042 -0.4027797 0.8858231
vn 0.8235338 -0.2620442 -0.5031151
vn 0.2602604 -0.9649121 -0.03477155
vn 0.5194817 -0.7533559 -0.403229
vn 0.643982 -0.6486643 -0.4056129
vn -0.9404977 0.02780758 0.3386604
vn -0.8586207 0.348254 -0.3761513
vn -0.8658065 0.3363341 -0.3704841
vn 0.3237666 -0.1015805 -0.9406681
vn 0.3390006 -0.0609175 -0.9388119
vn -0.1447736 0.9806799 -0.1315583
vn 0.2661973 0.7189064 0.6421157
vn 0.7012123 0.6409895 -0.312144
vn 0.7502649 -0.5222228 -0.4054455
vn 0.6633789 -0.6670474 -0.3390816
vn 0.3191908 -0.7783309 -0.5406646
vn -0.0189003 -0.9993221 -0.03159453
vn -0.8731729 -0.4182736 0.2502326
vn 0.5902938 -0.7057543 -0.3917449
vn -0.8550891 0.4986193 0.142132
vn -0.8545667 0.4990828 0.1436391
vn -0.3170773 0.7873656 0.5286941
vn -0.3174646 0.7886221 0.5265846
vn 0.3469856 -0.4356314 -0.8305578
vn -0.8034609 0.4032348 -0.4380094
vn 0.5860494 -0.641737 -0.4946916
vn 0.3301544 -0.1797239 -0.9266592
vn -0.4620933 -0.8861753 -0.03410715
vn 0.7927601 -0.4700822 -0.3880129
vn -0.3909555 0.7752256 0.4961644
vn 0.006368489 0.9782903 0.2071415
vt -0.1038736 0.0679452
vt -0.1031149 0.06630057
vt -0.1013113 0.0661353
vt -0.101225 0.07196855
vt -0.1028287 0.06942457
vt -0.09164697 0.08684237
vt -0.09995153 0.08904006
vt -0.09360458 0.0845591
vt -0.0995081 0.05108758
vt -0.1010978 0.06085042
vt -0.1076133 0.05393373
vt -0.07526349 0.1066432
vt -0.07479499 0.113669
vt -0.07858726 0.1045334
vt -0.03172716 0.1050552
vt -0.02553067 0.1062556
vt -0.02908434 0.1099123
vt 0.02426974 -0.03557124
vt 0.0302527 -0.02928024
vt 0.0267424 -0.02954912
vt -0.01061462 -8.265622E-05
vt -0.003139169 -0.0002011586
vt -0.003247984 0.004511376
vt -0.005757791 0.1093398
vt -0.01326421 0.1063909
vt -0.005875484 0.1075324
vt 0.02758333 0.1257977
vt 0.02381907 0.1287077
vt 0.01953123 0.1253438
vt -0.01205128 0.1184923
vt -0.01715315 0.1185778
vt -0.01273401 0.1168147
vt -0.01209346 0.1172869
vt -0.01596031 0.1207768
vt -0.01719535 0.1173715
vt -0.06918351 0.0536604
vt -0.07439189 0.05553127
vt -0.07033588 0.0522631
vt -0.0208702 0.1290791
vt -0.02426261 0.1360687
vt -0.02564543 0.1318763
vt -0.04624217 -0.02489016
vt -0.05429327 -0.03497759
vt -0.0462705 -0.03439235
vt 0.01340802 -0.05081428
vt 0.007711782 -0.05632899
vt 0.01151597 -0.06358128
vt 0.07006525 0.1042647
vt 0.07760789 0.111829
vt 0.07017927 0.1145994
vt 0.07488536 0.1003679
vt 0.08069588 0.1005203
vt 0.08266942 0.1076835
vt 0.07858656 0.04502376
vt 0.08204802 0.04926202
vt 0.07623748 0.04911051
vt 0.1012227 0.05798335
vt 0.1052052 0.05711715
vt 0.1027924 0.06322554
vt -0.09970724 0.02505652
vt -0.0990018 0.02121121
vt -0.09505323 0.02222074
vt -0.1048511 0.04677659
vt -0.10609 0.04549789
vt -0.1050041 0.0428701
vt -0.09965835 0.08948111
vt -0.1004293 0.08500536
vt -0.09891181 0.08593647
vt -0.1056556 0.0638621
vt -0.1112936 0.0606979
vt -0.1053304 0.05933208
vt -0.1084918 0.06475864
vt -0.1110654 0.05833828
vt -0.1054563 0.06155341
vt -0.05139232 0.06513812
vt -0.0594295 0.06480492
vt -0.0556472 0.05968465
vt 0.1053838 0.07858339
vt 0.1080426 0.07125202
vt 0.1125262 0.07457682
vt -0.0167742 0.03442667
vt -0.01869001 0.02833672
vt -0.01244357 0.02794098
vt 0.1025002 0.08138093
vt 0.1087972 0.08241259
vt 0.1057888 0.08804356
vt 0.1050794 0.06091394
vt 0.1087233 0.06829494
vt 0.1024861 0.06694794
vt 0.03390438 0.107741
vt 0.04160483 0.1103306
vt 0.03961274 0.1136716
vt -0.0182162 0.1269593
vt -0.02761219 0.1279563
vt -0.02011002 0.1248385
vt -0.01561258 0.130592
vt -0.01661416 0.1340954
vt -0.02498999 0.1317508
vt 0.1046369 0.08835158
vt 0.1009966 0.08976869
vt 0.09868061 0.08695573
vt 0.0574119 -0.03154296
vt 0.05427478 -0.02868174
vt 0.05406272 -0.02953221
vt 0.1125842 0.07397901
vt 0.1081008 0.06976356
vt 0.1117907 0.06766289
vt 0.111886 0.07580237
vt 0.1074978 0.0723526
vt 0.1075375 0.07144788
vt 0.008867267 0.1359593
vt 0.002631162 0.1354249
vt 0.002654528 0.134965
vt 0.04266349 0.06115355
vt 0.04606857 0.06330489
vt 0.04061444 0.06182079
vt 0.01474466 0.1039569
vt 0.02032671 0.1029298
vt 0.01812961 0.1061397
vt 0.01490432 0.1158463
vt 0.02373125 0.114768
vt 0.01816006 0.1158524
vt -0.03326917 0.1275452
vt -0.03390681 0.1288104
vt -0.0418864 0.1253496
vt -0.0979129 0.09298091
vt -0.09886082 0.09277714
vt -0.09759983 0.09213115
vt -0.09807736 0.09283778
vt -0.09835658 0.09319948
vt -0.09902492 0.09263239
vt -0.07886319 0.1081826
vt -0.07950087 0.1077271
vt -0.07923383 0.1073563
vt -0.08106144 0.107524
vt -0.08133812 0.107892
vt -0.0816917 0.1070583
vt -0.0526626 0.04553277
vt -0.05284028 0.04426574
vt -0.05214015 0.04479308
vt 0.05174742 0.04511449
vt 0.05243735 0.04493391
vt 0.05265195 0.0451583
vt -0.05662946 -0.06717621
vt -0.06209173 -0.06527423
vt -0.05634188 -0.06782882
vt 0.01880366 0.1252863
vt 0.02440049 0.1267668
vt 0.01864658 0.1261782
vt 0.02406713 0.1150259
vt 0.02427031 0.1147938
vt 0.02969697 0.1163754
vt -0.009696688 0.09113084
vt -0.00891797 0.09162865
vt -0.009138704 0.09184411
vt 0.03019339 0.02798958
vt 0.03296517 0.02781058
vt 0.03093691 0.02853858
vt -0.1058437 -0.01510803
vt -0.1056077 -0.01856988
vt -0.1052745 -0.01581238
vt 0.01471361 0.110437
vt 0.01492115 0.110217
vt 0.01817689 0.110223
vt -0.05207057 0.1202911
vt -0.05222577 0.1191343
vt -0.05205749 0.1193856
vt -0.05188225 0.1203414
vt -0.05205666 0.1200902
vt -0.05203874 0.1191848
vt 0.008958167 0.09179997
vt 0.009293963 0.09087817
vt 0.009517008 0.09108736
vt 0.00870526 0.09171726
vt 0.008478564 0.0915051
vt 0.009041261 0.09079553
vt -0.04989204 0.1104373
vt -0.0494781 0.1096319
vt -0.04857359 0.1095876
vt -0.048083 0.1103488
vt -0.04849695 0.1111543
vt -0.04940145 0.1111985
vt -0.09055945 0.08926575
vt -0.08704485 0.09180242
vt -0.08912738 0.09492131
vt 0.004552668 0.1121956
vt 0.001292468 0.1220032
vt -0.002000928 0.1157794
vt -0.07380247 0.1061412
vt -0.07202675 0.102838
vt -0.07040099 0.1081232
vt 0.001221386 -0.02163898
vt -0.004840423 -0.02339739
vt -0.002451401 -0.02701397
vt 0.01501055 0.1264509
vt 0.0177229 0.1221331
vt 0.02123816 0.1223266
vt -0.003616992 0.09813072
vt -0.005899045 0.09498066
vt 0.002654092 0.09656034
vt -0.01189472 0.03777789
vt -0.01814194 0.03816109
vt -0.01189468 0.03649846
o group1458914658
g mesh1458914658
usemtl mat25
f 5/5/1 4/4/1 3/3/1 2/2/1 1/1/1
f 5/8/2 6/7/2 4/6/2
f 6/11/3 7/10/3 4/9/3
f 4/14/4 7/13/4 8/12/4
f 8/17/5 10/16/5 9/15/5
f 10/20/6 11/19/6 3/18/6
f 11/23/7 12/22/7 3/21/7
f 3/26/8 12/25/8 2/24/8
f 12/29/9 13/28/9 2/27/9
f 2/32/10 13/31/10 1/30/10
f 13/35/11 14/34/11 1/33/11
f 1/38/12 14/37/12 5/36/12
f 14/41/13 6/40/13 5/39/13
f 6/44/14 15/43/14 7/42/14
f 15/47/15 16/46/15 7/45/15
f 7/50/16 16/49/16 11/48/16
f 16/53/17 17/52/17 11/51/17
f 11/56/18 17/55/18 12/54/18
f 17/59/19 18/58/19 12/57/19
f 12/62/20 18/61/20 13/60/20
f 18/65/21 19/64/21 13/63/21
f 13/68/22 19/67/22 14/66/22
f 19/71/23 20/70/23 14/69/23
f 14/74/24 20/73/24 6/72/24
f 20/77/25 15/76/25 6/75/25
f 15/80/26 21/79/26 16/78/26
f 21/83/27 22/82/27 16/81/27
f 16/86/28 22/85/28 17/84/28
f 17/89/29 22/88/29 18/87/29
f 22/92/30 23/91/30 18/90/30
f 18/95/31 23/94/31 19/93/31
f 23/98/32 24/97/32 19/96/32
f 19/101/33 24/100/33 20/99/33
f 24/104/34 25/103/34 20/102/34
f 20/107/35 25/106/35 15/105/35
f 25/110/36 21/109/36 15/108/36
f 26/113/37 21/112/37 22/111/37
f 28/116/38 22/115/38 27/114/38
f 22/119/39 23/118/39 27/117/39
f 27/122/40 23/121/40 29/120/40
f 23/125/41 24/124/41 29/123/41
f 29/128/42 24/127/42 30/126/42
f 24/131/43 25/130/43 30/129/43
f 30/134/44 25/133/44 26/132/44
f 25/137/45 21/136/45 26/135/45
f 25/140/46 24/139/46 21/138/46
f 32/143/47 26/142/47 31/141/47
f 26/146/48 22/145/48 31/144/48
f 31/149/49 22/148/49 33/147/49
f 22/152/50 28/151/50 33/150/50
f 33/155/51 28/154/51 34/153/51
f 28/158/52 27/157/52 34/156/52
f 34/161/53 27/160/53 35/159/53
f 27/164/54 29/163/54 35/162/54
f 35/167/55 29/166/55 36/165/55
f 29/170/56 30/169/56 36/168/56
f 36/173/57 30/172/57 32/171/57
f 30/176/58 26/175/58 32/174/58
f 32/182/59 31/181/59 33/180/59 34/179/59 35/178/59 36/177/59
f 4/185/60 9/184/60 3/183/60
f 8/188/61 7/187/61 11/186/61
f 8/191/62 9/190/62 4/189/62
f 3/194/63 9/193/63 10/192/63
f 11/197/64 10/196/64 8/195/64
f 24/200/65 23/199/65 22/198/65
f 24/203/66 22/202/66 21/201/66
